# xmcd CD database file
#
# Track frame offsets:
#	150
#	16375
#	33592
#	44032
#	52965
#	67285
#	78837
#	119815
#	132402
#	144942
#	159140
#	171832
#	183165
#	233335
#	248655
#
# Disc length: 3452 seconds
#
# Revision: 3
# Processed by: cddbd v1.5.2PL0 Copyright (c) Steve Scherf et al.
# Submitted via: CDex 1.51
#
DISCID=c60d7a0f
DTITLE=Canned Heat - Far Out (Disc-2)
DYEAR=2002
DGENRE=Blues
TTITLE0=Amphetamine Annie (Re-Mix)
TTITLE1=My Time Ain't Long
TTITLE2=Bullfrog Blues (Alternate Version)
TTITLE3=Pretty Thing
TTITLE4=Big Road Blues (Alternate Version)
TTITLE5=Christmas Blues
TTITLE6=When Things Go Wrong
TTITLE7=Chipmunk Song (Christmas Boogie)
TTITLE8=Poor Moon
TTITLE9=Rollin' And Tumblin' (Alternate Version)
TTITLE10=Let's Work Together (Re-Mix)
TTITLE11=Lowdown
TTITLE12=Refried Hockey Boogie
TTITLE13=On The Road Again (Single Version)
TTITLE14=Dimples (Alternate Version)
EXTD=YEAR: 2002
EXTT0=
EXTT1=
EXTT2=
EXTT3=
EXTT4=
EXTT5=
EXTT6=
EXTT7=
EXTT8=
EXTT9=
EXTT10=
EXTT11=
EXTT12=
EXTT13=
EXTT14=
PLAYORDER=
